<svg width="354" height="233" viewBox="0 0 354 233" fill="none" xmlns="http://www.w3.org/2000/svg">
<path d="M0.361883 228.93C-0.27182 229.835 -0.0521266 231.082 0.852581 231.715C1.75729 232.349 3.00442 232.129 3.63812 231.225L0.361883 228.93ZM73.5 128L74.4412 126.235C73.549 125.759 72.442 126.024 71.8619 126.853L73.5 128ZM148.5 168L147.559 169.765C147.931 169.963 148.357 170.039 148.775 169.981L148.5 168ZM285.5 149L285.775 150.981C286.462 150.886 287.051 150.44 287.331 149.805L285.5 149ZM351 0L332.381 13.6622L353.522 22.9559L351 0ZM3.63812 231.225L5.87249 228.035L2.59626 225.74L0.361883 228.93L3.63812 231.225ZM10.3412 221.655L14.81 215.275L11.5338 212.98L7.06501 219.36L10.3412 221.655ZM19.2787 208.895L23.7475 202.515L20.4713 200.221L16.0025 206.6L19.2787 208.895ZM28.2162 196.136L32.685 189.756L29.4088 187.461L24.94 193.841L28.2162 196.136ZM37.1537 183.376L41.6225 176.996L38.3463 174.701L33.8775 181.081L37.1537 183.376ZM46.0912 170.616L50.56 164.236L47.2838 161.942L42.815 168.321L46.0912 170.616ZM55.0287 157.857L59.4975 151.477L56.2213 149.182L51.7525 155.562L55.0287 157.857ZM63.9662 145.097L68.435 138.717L65.1588 136.422L60.69 142.802L63.9662 145.097ZM72.9037 132.337L75.1381 129.147L71.8619 126.853L69.6275 130.043L72.9037 132.337ZM72.5588 129.765L76.3088 131.765L78.1912 128.235L74.4412 126.235L72.5588 129.765ZM83.8088 135.765L91.3088 139.765L93.1912 136.235L85.6912 132.235L83.8088 135.765ZM98.8088 143.765L106.309 147.765L108.191 144.235L100.691 140.235L98.8088 143.765ZM113.809 151.765L121.309 155.765L123.191 152.235L115.691 148.235L113.809 151.765ZM128.809 159.765L136.309 163.765L138.191 160.235L130.691 156.235L128.809 159.765ZM143.809 167.765L147.559 169.765L149.441 166.235L145.691 164.235L143.809 167.765ZM148.775 169.981L152.58 169.453L152.031 165.491L148.225 166.019L148.775 169.981ZM160.191 168.398L167.803 167.342L167.253 163.38L159.642 164.436L160.191 168.398ZM175.414 166.287L183.025 165.231L182.475 161.269L174.864 162.325L175.414 166.287ZM190.636 164.175L198.247 163.12L197.697 159.158L190.086 160.213L190.636 164.175ZM205.858 162.064L213.469 161.009L212.92 157.047L205.309 158.102L205.858 162.064ZM221.08 159.953L228.691 158.898L228.142 154.936L220.531 155.991L221.08 159.953ZM236.303 157.842L243.914 156.787L243.364 152.825L235.753 153.88L236.303 157.842ZM251.525 155.731L259.136 154.675L258.586 150.713L250.975 151.769L251.525 155.731ZM266.747 153.62L274.358 152.564L273.809 148.602L266.198 149.658L266.747 153.62ZM281.969 151.509L285.775 150.981L285.225 147.019L281.42 147.547L281.969 151.509ZM287.331 149.805L288.968 146.08L285.307 144.47L283.669 148.195L287.331 149.805ZM292.243 138.63L295.518 131.18L291.857 129.57L288.582 137.02L292.243 138.63ZM298.793 123.73L302.068 116.28L298.407 114.67L295.132 122.12L298.793 123.73ZM305.343 108.83L308.618 101.38L304.957 99.7701L301.682 107.22L305.343 108.83ZM311.893 93.9299L315.168 86.4799L311.507 84.8701L308.232 92.3201L311.893 93.9299ZM318.443 79.0299L321.718 71.5799L318.057 69.9701L314.782 77.4201L318.443 79.0299ZM324.993 64.1299L328.268 56.6799L324.607 55.0701L321.332 62.5201L324.993 64.1299ZM331.543 49.2298L334.818 41.7798L331.157 40.1701L327.882 47.6201L331.543 49.2298ZM338.093 34.3298L341.368 26.8798L337.707 25.2701L334.432 32.7201L338.093 34.3298ZM344.643 19.4299L347.918 11.9798L344.257 10.3701L340.982 17.8201L344.643 19.4299Z" fill="black"/>
</svg>
