<svg width="192" height="40" viewBox="0 0 192 40" fill="none" xmlns="http://www.w3.org/2000/svg">
<path fill-rule="evenodd" clip-rule="evenodd" d="M165.338 6.85092L151.335 0L137.333 6.85092L122.587 11.9079L117.53 26.6536L111 40H112.753L118.988 27.2575L123.827 13.1477L137.936 8.3088L151.335 1.75333L164.734 8.3088L178.844 13.1477L183.683 27.2575L189.917 40H191.67L185.141 26.6536L180.083 11.9079L165.338 6.85092ZM176.421 40L172.259 31.4938L169.077 22.2141L159.797 19.0317L150.985 14.7204L142.173 19.0317L132.894 22.2142L129.711 31.4938L125.549 40H127.303L131.169 32.0976L134.133 23.4539L142.777 20.4896L150.985 16.4737L159.193 20.4896L167.837 23.4539L170.801 32.0976L174.668 40H176.421ZM165.034 40L162.992 35.8277L161.249 30.743L156.164 28.9992L151.335 26.6368L146.507 28.9992L141.422 30.743L139.678 35.8277L137.637 40H139.39L141.136 36.4316L142.662 31.9828L147.111 30.4571L151.335 28.3902L155.56 30.4571L160.009 31.9828L161.535 36.4316L163.28 40H165.034Z" fill="black"/>
<path fill-rule="evenodd" clip-rule="evenodd" d="M54.3378 33.1491L40.3352 40L26.3325 33.1491L11.5869 28.0921L6.52984 13.3464L0 0H1.75333L7.98772 12.7425L12.8266 26.8523L26.9364 31.6912L40.3352 38.2467L53.7339 31.6912L67.8437 26.8523L72.6826 12.7425L78.917 1.52588e-05H80.6703L74.1405 13.3464L69.0835 28.0921L54.3378 33.1491ZM65.421 1.14441e-05L61.2593 8.50624L58.0768 17.7859L48.7972 20.9683L39.9852 25.2796L31.1732 20.9683L21.8936 17.7858L18.7112 8.50624L14.5494 3.8147e-06H16.3028L20.1691 7.90236L23.1334 16.5461L31.7771 19.5104L39.9852 23.5263L48.1933 19.5104L56.837 16.5461L59.8014 7.90237L63.6677 1.14441e-05H65.421ZM54.0338 1.14441e-05L51.9924 4.17227L50.2486 9.25699L45.1639 11.0008L40.3354 13.3632L35.5069 11.0008L30.4222 9.25698L28.6784 4.17226L26.6371 3.8147e-06H28.3904L30.1363 3.56839L31.662 8.01719L36.1108 9.5429L40.3354 11.6098L44.56 9.5429L49.0088 8.01719L50.5346 3.56839L52.2804 1.14441e-05H54.0338Z" fill="black"/>
</svg>
