<svg width="516" height="516" viewBox="0 0 516 516" fill="none" xmlns="http://www.w3.org/2000/svg">
<path d="M345.921 44.3109L345.977 44.3384L346.036 44.3586L439.013 76.245L470.9 169.222L470.92 169.281L470.947 169.337L514.145 257.629L470.947 345.921L470.92 345.977L470.9 346.036L439.013 439.013L346.036 470.9L345.977 470.92L345.921 470.947L257.629 514.145L169.337 470.947L169.281 470.92L169.222 470.9L76.245 439.013L44.3586 346.036L44.3384 345.977L44.3109 345.921L1.11327 257.629L44.3109 169.337L44.3384 169.281L44.3586 169.222L76.245 76.245L169.222 44.3586L169.281 44.3384L169.337 44.3109L257.629 1.11327L345.921 44.3109Z" stroke="black" stroke-width="2"/>
<path d="M310.81 121.498L310.866 121.525L310.925 121.545L369.265 141.553L389.273 199.893L389.293 199.952L389.32 200.008L416.425 255.408L389.32 310.808L389.293 310.864L389.273 310.923L369.265 369.263L310.925 389.271L310.866 389.291L310.81 389.319L255.41 416.424L200.01 389.319L199.954 389.291L199.895 389.271L141.555 369.263L121.547 310.923L121.527 310.864L121.5 310.808L94.3945 255.408L121.5 200.008L121.527 199.952L121.547 199.893L141.555 141.553L199.895 121.545L199.954 121.525L200.01 121.498L255.41 94.3927L310.81 121.498Z" stroke="black" stroke-width="2"/>
<path d="M287.787 184.66L287.843 184.687L287.902 184.707L319.66 195.599L330.551 227.356L330.572 227.415L330.599 227.471L345.354 257.629L330.599 287.787L330.572 287.843L330.551 287.902L319.66 319.659L287.902 330.551L287.843 330.571L287.787 330.598L257.63 345.353L227.472 330.598L227.416 330.571L227.357 330.551L195.599 319.659L184.708 287.902L184.688 287.843L184.66 287.787L169.905 257.629L184.66 227.471L184.688 227.415L184.708 227.356L195.599 195.599L227.357 184.707L227.416 184.687L227.472 184.66L257.63 169.905L287.787 184.66Z" stroke="black" stroke-width="2"/>
</svg>
