<svg width="241" height="241" viewBox="0 0 241 241" fill="none" xmlns="http://www.w3.org/2000/svg">
<circle cx="120.079" cy="120.079" r="120.079" fill="#E2DBDA"/>
<path d="M48.5211 23.6507C64.2929 11.9467 82.6947 4.28998 102.114 1.35155C121.533 -1.58687 141.376 0.282728 159.904 6.79647C178.433 13.3102 195.08 24.2693 208.389 38.7131C221.697 53.1569 231.259 70.6445 236.237 89.6431L120.079 120.079L48.5211 23.6507Z" fill="#6C6887"/>
<path d="M171.104 228.778C151.128 238.155 128.954 241.846 107.017 239.446C85.08 237.045 64.229 228.646 46.7534 215.17C29.2779 201.695 15.8537 183.664 7.95514 163.058C0.0565654 142.453 -2.01093 120.069 1.97968 98.3647C5.9703 76.6607 15.8647 56.4762 30.5763 40.0277C45.2879 23.5791 64.2477 11.5027 85.3737 5.12467C106.5 -1.25339 128.975 -1.68644 150.331 3.87308C171.687 9.4326 191.098 20.7697 206.432 36.6393L120.079 120.079L171.104 228.778Z" fill="#3E5141"/>
</svg>
