<svg width="95" height="61" viewBox="0 0 95 61" fill="none" xmlns="http://www.w3.org/2000/svg">
<circle cx="30.0792" cy="30.0792" r="30.0792" fill="#E2DBDA"/>
<path d="M12.1543 5.92436C16.105 2.99258 20.7146 1.07462 25.5789 0.338557C30.4432 -0.397501 35.4139 0.0708219 40.0551 1.70248C44.6964 3.33414 48.8666 6.07931 52.2002 9.6974C55.5338 13.3155 57.9291 17.696 59.176 22.4551L30.0792 30.0792L12.1543 5.92436Z" fill="#6C6887"/>
<path d="M42.8606 57.3076C37.8566 59.6566 32.3022 60.5811 26.8071 59.9798C21.3121 59.3785 16.089 57.2745 11.7115 53.899C7.33394 50.5234 3.97126 46.0068 1.99272 40.8452C0.0141693 35.6836 -0.503727 30.0765 0.4959 24.6398C1.49553 19.2031 3.97401 14.147 7.65919 10.0267C11.3444 5.90644 16.0937 2.88137 21.3856 1.2837C26.6776 -0.313967 32.3074 -0.422443 37.657 0.970185C43.0065 2.36281 47.8689 5.20268 51.71 9.17793L30.0792 30.0792L42.8606 57.3076Z" fill="#3E5141"/>
<circle cx="81.4643" cy="13.5356" r="13.5356" fill="#E2DBDA"/>
<path d="M87.1479 25.8202C84.4477 27.0695 81.411 27.3943 78.5077 26.7444C75.6043 26.0945 72.9959 24.5061 71.086 22.2248C69.176 19.9436 68.0709 17.0966 67.9415 14.1242C67.8121 11.1518 68.6657 8.21952 70.3703 5.78096L81.4643 13.5356L87.1479 25.8202Z" fill="#6C6887"/>
<path d="M94.4926 17.2066C93.7682 19.7778 92.2991 22.077 90.2705 23.8149C88.2419 25.5528 85.7444 26.6516 83.0926 26.9729L81.4643 13.5356L94.4926 17.2066Z" fill="#3E5141"/>
<circle cx="81.4643" cy="46.6227" r="13.5356" fill="#E2DBDA"/>
<path d="M93.3002 40.0557C95.0419 43.1948 95.4652 46.8971 94.4771 50.3483L81.4643 46.6227L93.3002 40.0557Z" fill="#6C6887"/>
</svg>
