<svg width="50" height="50" viewBox="0 0 50 50" fill="none" xmlns="http://www.w3.org/2000/svg">
<path d="M33.1709 5.11096L33.227 5.13839L33.286 5.15863L41.8905 8.10953L44.8414 16.714L44.8616 16.7731L44.889 16.8291L48.8867 25L44.889 33.1709L44.8616 33.227L44.8414 33.286L41.8905 41.8905L33.286 44.8414L33.227 44.8616L33.1709 44.889L25 48.8867L16.8291 44.889L16.7731 44.8616L16.714 44.8414L8.10953 41.8905L5.15863 33.286L5.13839 33.227L5.11096 33.1709L1.11327 25L5.11096 16.8291L5.13839 16.7731L5.15863 16.714L8.10953 8.10953L16.714 5.15863L16.7731 5.13839L16.8291 5.11096L25 1.11327L33.1709 5.11096Z" stroke="#E2DBDA" stroke-width="2"/>
<path d="M29.7639 12.6011L29.8199 12.6285L29.879 12.6488L35.1223 14.447L36.9205 19.6903L36.9407 19.7493L36.9682 19.8054L39.4042 24.7845L36.9682 29.7636L36.9407 29.8197L36.9205 29.8787L35.1223 35.1221L29.879 36.9203L29.8199 36.9405L29.7639 36.9679L24.7848 39.404L19.8056 36.9679L19.7496 36.9405L19.6906 36.9203L14.4472 35.1221L12.649 29.8787L12.6288 29.8197L12.6014 29.7636L10.1653 24.7845L12.6014 19.8054L12.6288 19.7493L12.649 19.6903L14.4472 14.447L19.6906 12.6488L19.7496 12.6285L19.8056 12.6011L24.7848 10.165L29.7639 12.6011Z" stroke="#E2DBDA" stroke-width="2"/>
<path d="M27.5297 18.7303L27.5858 18.7577L27.6448 18.778L30.3086 19.6915L31.2222 22.3554L31.2424 22.4144L31.2699 22.4705L32.5075 25.0001L31.2699 27.5297L31.2424 27.5858L31.2222 27.6448L30.3086 30.3086L27.6448 31.2222L27.5858 31.2424L27.5297 31.2699L25.0001 32.5075L22.4705 31.2699L22.4144 31.2424L22.3554 31.2222L19.6915 30.3086L18.778 27.6448L18.7577 27.5858L18.7303 27.5297L17.4927 25.0001L18.7303 22.4705L18.7577 22.4144L18.778 22.3554L19.6915 19.6915L22.3554 18.778L22.4144 18.7577L22.4705 18.7303L25.0001 17.4927L27.5297 18.7303Z" stroke="#E2DBDA" stroke-width="2"/>
</svg>
